<svg width="1024" height="1024" viewBox="0 0 1024 1024" fill="none" xmlns="http://www.w3.org/2000/svg">
  <defs>
    <linearGradient id="bg" x1="128" y1="64" x2="896" y2="960" gradientUnits="userSpaceOnUse">
      <stop offset="0" stop-color="#1C9EFF"/>
      <stop offset="1" stop-color="#0064D2"/>
    </linearGradient>
    <linearGradient id="bridge" x1="250" y1="460" x2="774" y2="460" gradientUnits="userSpaceOnUse">
      <stop offset="0" stop-color="#FFFFFF" stop-opacity="0.95"/>
      <stop offset="1" stop-color="#DDF1FF" stop-opacity="0.95"/>
    </linearGradient>
    <filter id="shadow" x="210" y="180" width="604" height="620" filterUnits="userSpaceOnUse" color-interpolation-filters="sRGB">
      <feDropShadow dx="0" dy="18" stdDeviation="20" flood-opacity="0.18"/>
    </filter>
  </defs>

  <rect x="64" y="64" width="896" height="896" rx="200" fill="url(#bg)"/>

  <g filter="url(#shadow)">
    <path d="M282 635C282 541 358 465 452 465H572C666 465 742 541 742 635V668H282V635Z" fill="url(#bridge)"/>
    <rect x="252" y="668" width="520" height="48" rx="24" fill="#E8F5FF"/>

    <rect x="334" y="546" width="54" height="168" rx="24" fill="#F7FBFF"/>
    <rect x="438" y="514" width="54" height="200" rx="24" fill="#F7FBFF"/>
    <rect x="542" y="514" width="54" height="200" rx="24" fill="#F7FBFF"/>
    <rect x="646" y="546" width="54" height="168" rx="24" fill="#F7FBFF"/>
  </g>

  <path d="M262 384C285 384 299 395 311 415L344 472L386 303C391 281 421 279 429 301L488 465L532 389C541 374 563 373 573 386L614 442L653 326C660 303 692 302 699 325L736 448H774" stroke="white" stroke-width="38" stroke-linecap="round" stroke-linejoin="round"/>

  <circle cx="258" cy="384" r="19" fill="white"/>
  <circle cx="776" cy="448" r="19" fill="white"/>
</svg>
